<svg xmlns="http://www.w3.org/2000/svg" width="1200" height="700" viewBox="0 0 1200 700" fill="none">
  <defs>
    <linearGradient id="lc-bg" x1="0" y1="0" x2="1200" y2="700" gradientUnits="userSpaceOnUse">
      <stop stop-color="#8B5B2A"/>
      <stop offset="1" stop-color="#231914"/>
    </linearGradient>
  </defs>
  <rect width="1200" height="700" rx="32" fill="url(#lc-bg)"/>
  <rect x="120" y="120" width="360" height="460" rx="20" fill="#F3ECE4" fill-opacity="0.9"/>
  <rect x="170" y="192" width="258" height="14" rx="7" fill="#8B5B2A"/>
  <rect x="170" y="228" width="220" height="14" rx="7" fill="#8B5B2A" fill-opacity="0.88"/>
  <rect x="170" y="264" width="248" height="14" rx="7" fill="#8B5B2A" fill-opacity="0.82"/>
  <rect x="170" y="300" width="188" height="14" rx="7" fill="#8B5B2A" fill-opacity="0.78"/>
  <rect x="560" y="145" width="520" height="410" rx="24" fill="#E9DED2" fill-opacity="0.14" stroke="#F3ECE4" stroke-opacity="0.3"/>
  <rect x="618" y="203" width="86" height="86" rx="10" fill="#EAD8C4"/>
  <rect x="704" y="203" width="86" height="86" rx="10" fill="#A8642B"/>
  <rect x="790" y="203" width="86" height="86" rx="10" fill="#EAD8C4"/>
  <rect x="876" y="203" width="86" height="86" rx="10" fill="#A8642B"/>
  <rect x="618" y="289" width="86" height="86" rx="10" fill="#A8642B"/>
  <rect x="704" y="289" width="86" height="86" rx="10" fill="#EAD8C4"/>
  <rect x="790" y="289" width="86" height="86" rx="10" fill="#A8642B"/>
  <rect x="876" y="289" width="86" height="86" rx="10" fill="#EAD8C4"/>
  <path d="M944 170h30l18 28h-66l18-28Z" fill="#F2DCC2"/>
  <rect x="940" y="198" width="38" height="74" rx="12" fill="#F2DCC2"/>
  <rect x="616" y="420" width="346" height="24" rx="12" fill="#0F172A" fill-opacity="0.6"/>
  <circle cx="648" cy="432" r="7" fill="#4DD08A"/>
  <rect x="666" y="425" width="92" height="14" rx="7" fill="#3A4E6E"/>
  <rect x="768" y="425" width="164" height="14" rx="7" fill="#3A4E6E"/>
</svg>
