<svg xmlns="http://www.w3.org/2000/svg" width="1200" height="700" viewBox="0 0 1200 700" fill="none">
  <defs>
    <linearGradient id="pc-bg" x1="0" y1="0" x2="1200" y2="700" gradientUnits="userSpaceOnUse">
      <stop stop-color="#7A4B18"/>
      <stop offset="1" stop-color="#231814"/>
    </linearGradient>
    <linearGradient id="pc-monitor" x1="0" y1="0" x2="0" y2="1">
      <stop stop-color="#20324B"/>
      <stop offset="1" stop-color="#121A2B"/>
    </linearGradient>
  </defs>
  <rect width="1200" height="700" rx="32" fill="url(#pc-bg)"/>
  <rect x="640" y="120" width="430" height="280" rx="18" fill="url(#pc-monitor)" stroke="#7FA8D9" stroke-opacity="0.35"/>
  <rect x="690" y="410" width="330" height="20" rx="10" fill="#0E1421"/>
  <rect x="760" y="430" width="190" height="22" rx="11" fill="#A8B7CC" fill-opacity="0.3"/>
  <rect x="126" y="130" width="430" height="430" rx="22" fill="#E9DED2" fill-opacity="0.12" stroke="#F3ECE4" stroke-opacity="0.28"/>
  <g opacity="0.95">
    <rect x="170" y="174" width="86" height="86" rx="10" fill="#EAD8C4"/>
    <rect x="256" y="174" width="86" height="86" rx="10" fill="#A8642B"/>
    <rect x="342" y="174" width="86" height="86" rx="10" fill="#EAD8C4"/>
    <rect x="428" y="174" width="86" height="86" rx="10" fill="#A8642B"/>
    <rect x="170" y="260" width="86" height="86" rx="10" fill="#A8642B"/>
    <rect x="256" y="260" width="86" height="86" rx="10" fill="#EAD8C4"/>
    <rect x="342" y="260" width="86" height="86" rx="10" fill="#A8642B"/>
    <rect x="428" y="260" width="86" height="86" rx="10" fill="#EAD8C4"/>
  </g>
  <path d="M776 187c18 0 31 13 31 31v15h-62v-15c0-18 13-31 31-31Z" fill="#F2DCC2"/>
  <rect x="747" y="233" width="58" height="66" rx="16" fill="#F2DCC2"/>
  <path d="M886 205h34l16 22h-66l16-22Z" fill="#C08A58"/>
  <rect x="882" y="227" width="42" height="78" rx="12" fill="#C08A58"/>
  <rect x="729" y="325" width="252" height="54" rx="12" fill="#10192A"/>
  <circle cx="760" cy="352" r="9" fill="#4DD08A"/>
  <rect x="780" y="345" width="66" height="14" rx="7" fill="#29405F"/>
  <rect x="856" y="345" width="98" height="14" rx="7" fill="#29405F"/>
</svg>
