<svg xmlns="http://www.w3.org/2000/svg" width="1200" height="700" viewBox="0 0 1200 700" fill="none">
  <defs>
    <linearGradient id="pf-bg" x1="0" y1="0" x2="1200" y2="700" gradientUnits="userSpaceOnUse">
      <stop stop-color="#5C3728"/>
      <stop offset="1" stop-color="#191311"/>
    </linearGradient>
  </defs>
  <rect width="1200" height="700" rx="32" fill="url(#pf-bg)"/>
  <rect x="430" y="190" width="340" height="340" rx="22" fill="#E9DED2" fill-opacity="0.12" stroke="#F3ECE4" stroke-opacity="0.28"/>
  <rect x="460" y="220" width="70" height="70" rx="8" fill="#EAD8C4"/>
  <rect x="530" y="220" width="70" height="70" rx="8" fill="#A8642B"/>
  <rect x="600" y="220" width="70" height="70" rx="8" fill="#EAD8C4"/>
  <rect x="670" y="220" width="70" height="70" rx="8" fill="#A8642B"/>
  <rect x="460" y="290" width="70" height="70" rx="8" fill="#A8642B"/>
  <rect x="530" y="290" width="70" height="70" rx="8" fill="#EAD8C4"/>
  <rect x="600" y="290" width="70" height="70" rx="8" fill="#A8642B"/>
  <rect x="670" y="290" width="70" height="70" rx="8" fill="#EAD8C4"/>
  <circle cx="240" cy="250" r="96" fill="#E3B27C"/>
  <rect x="144" y="354" width="192" height="120" rx="56" fill="#E3B27C"/>
  <circle cx="960" cy="250" r="96" fill="#E9E5DC"/>
  <rect x="864" y="354" width="192" height="120" rx="56" fill="#E9E5DC"/>
  <rect x="182" y="232" width="116" height="16" rx="8" fill="#7A4B18" fill-opacity="0.55"/>
  <rect x="902" y="232" width="116" height="16" rx="8" fill="#4B4F59" fill-opacity="0.55"/>
  <rect x="500" y="402" width="200" height="24" rx="12" fill="#0F172A" fill-opacity="0.62"/>
  <circle cx="536" cy="414" r="7" fill="#4DD08A"/>
  <circle cx="662" cy="414" r="7" fill="#F5C27A"/>
</svg>
